<?xml version="1.0" encoding="UTF-8" standalone="no"?>
<!DOCTYPE svg PUBLIC "-//W3C//DTD SVG 1.1//EN" "http://www.w3.org/Graphics/SVG/1.1/DTD/svg11.dtd">
<svg width="100%" height="100%" viewBox="0 0 48 48" version="1.1" xmlns="http://www.w3.org/2000/svg" xmlns:xlink="http://www.w3.org/1999/xlink" xml:space="preserve" xmlns:serif="http://www.serif.com/" style="fill-rule:evenodd;clip-rule:evenodd;stroke-linejoin:round;stroke-miterlimit:2;">
    <rect id="OpenCVMovieComponent" x="0" y="0" width="48" height="48" style="fill:none;"/>
    <g id="OpenCVMovieComponent1" serif:id="OpenCVMovieComponent">
        <g id="Movie-Component" serif:id="Movie Component" transform="matrix(0.691344,0,0,0.691344,-0.662589,-0.33917)">
            <g id="Reel" transform="matrix(1,0,0,1,8.5145,16.0406)">
                <path d="M0,38.33C-0.491,38.33 -0.889,37.932 -0.889,37.441L-0.889,32.199C-0.889,31.708 -0.491,31.31 0,31.31L3.802,31.31C4.293,31.31 4.691,31.708 4.691,32.199L4.691,37.441C4.691,37.932 4.293,38.33 3.802,38.33L0,38.33ZM50.52,38.33C50.029,38.33 49.631,37.932 49.631,37.441L49.631,32.199C49.631,31.708 50.029,31.31 50.52,31.31L54.322,31.31C54.813,31.31 55.211,31.708 55.211,32.199L55.211,37.441C55.211,37.932 54.813,38.33 54.322,38.33L50.52,38.33ZM0,27.66C-0.491,27.66 -0.889,27.262 -0.889,26.771L-0.889,21.529C-0.889,21.038 -0.491,20.64 0,20.64L3.802,20.64C4.293,20.64 4.691,21.038 4.691,21.529L4.691,26.771C4.691,27.262 4.293,27.66 3.802,27.66L0,27.66ZM50.52,27.66C50.029,27.66 49.631,27.262 49.631,26.771L49.631,21.529C49.631,21.038 50.029,20.64 50.52,20.64L54.322,20.64C54.813,20.64 55.211,21.038 55.211,21.529L55.211,26.771C55.211,27.262 54.813,27.66 54.322,27.66L50.52,27.66ZM0,17.05C-0.491,17.05 -0.889,16.652 -0.889,16.161L-0.889,10.929C-0.889,10.438 -0.491,10.04 0,10.04L3.802,10.04C4.293,10.04 4.691,10.438 4.691,10.929L4.691,16.161C4.691,16.652 4.293,17.05 3.802,17.05L0,17.05ZM50.52,17.05C50.029,17.05 49.631,16.652 49.631,16.161L49.631,10.929C49.631,10.438 50.029,10.04 50.52,10.04L54.322,10.04C54.813,10.04 55.211,10.438 55.211,10.929L55.211,16.161C55.211,16.652 54.813,17.05 54.322,17.05L50.52,17.05ZM0,6.45C-0.491,6.45 -0.889,6.052 -0.889,5.561L-0.889,0.319C-0.889,-0.172 -0.491,-0.57 0,-0.57L3.802,-0.57C4.293,-0.57 4.691,-0.172 4.691,0.319L4.691,5.561C4.691,6.052 4.293,6.45 3.802,6.45L0,6.45ZM50.52,6.45C50.029,6.45 49.631,6.052 49.631,5.561L49.631,0.319C49.631,-0.172 50.029,-0.57 50.52,-0.57L54.322,-0.57C54.813,-0.57 55.211,-0.172 55.211,0.319L55.211,5.561C55.211,6.052 54.813,6.45 54.322,6.45L50.52,6.45ZM10.617,42.61C8.504,42.61 6.791,40.897 6.791,38.785L6.791,-0.455C6.791,-2.567 8.504,-4.28 10.617,-4.28L43.896,-4.28C46.009,-4.28 47.721,-2.567 47.721,-0.455L47.721,38.785C47.721,40.897 46.009,42.61 43.896,42.61L10.617,42.61ZM50.112,-7.94L4.4,-7.94C-0.498,-7.94 -4.469,-3.969 -4.469,0.929L-4.469,38.29C-4.469,42.7 -0.889,46.27 3.511,46.27L50.112,46.27C55.011,46.27 58.981,42.299 58.981,37.401L58.981,0.929C58.981,-3.969 55.011,-7.94 50.112,-7.94" style="fill:var(--outline);fill-rule:nonzero;"/>
            </g>
            <g transform="matrix(0.723229,0,0,0.723229,10.7302,28.5658)">
                <path d="M22.489,21.632L35.282,8.033C36.389,6.959 37.243,5.885 37.846,4.811C38.448,3.736 38.749,2.646 38.749,1.539C38.749,1.067 38.651,0.599 38.456,0.135C38.261,-0.329 37.98,-0.744 37.614,-1.11C37.247,-1.476 36.8,-1.769 36.271,-1.989C35.742,-2.208 35.144,-2.318 34.476,-2.318C33.679,-2.318 32.983,-2.192 32.389,-1.94C31.795,-1.688 31.299,-1.342 30.9,-0.902C30.501,-0.463 30.196,0.05 29.984,0.636C29.773,1.222 29.659,1.84 29.642,2.491L22.294,2.491C22.294,0.571 22.611,-1.142 23.246,-2.648C23.881,-4.153 24.756,-5.423 25.871,-6.456C26.985,-7.49 28.292,-8.275 29.789,-8.812C31.286,-9.35 32.89,-9.618 34.599,-9.618C36.21,-9.618 37.744,-9.374 39.201,-8.886C40.657,-8.397 41.943,-7.681 43.058,-6.737C44.173,-5.793 45.056,-4.629 45.707,-3.246C46.358,-1.863 46.683,-0.267 46.683,1.539C46.683,2.988 46.386,4.326 45.792,5.555C45.198,6.784 44.397,7.96 43.388,9.083L32.841,20.484L46.635,20.484L46.635,27.98L22.489,27.98L22.489,21.632Z" style="fill:var(--red);fill-rule:nonzero;"/>
            </g>
        </g>
    </g>
</svg>
