<?xml version="1.0" encoding="UTF-8" standalone="no"?>
<!DOCTYPE svg PUBLIC "-//W3C//DTD SVG 1.1//EN" "http://www.w3.org/Graphics/SVG/1.1/DTD/svg11.dtd">
<svg width="100%" height="100%" viewBox="0 0 48 48" version="1.1" xmlns="http://www.w3.org/2000/svg" xmlns:xlink="http://www.w3.org/1999/xlink" xml:space="preserve" xmlns:serif="http://www.serif.com/" style="fill-rule:evenodd;clip-rule:evenodd;stroke-linejoin:round;stroke-miterlimit:2;">
    <rect id="MoviePyMovieComponent" x="0" y="0" width="48" height="48" style="fill:none;"/>
    <g id="MoviePyMovieComponent1" serif:id="MoviePyMovieComponent">
        <g id="Reel" transform="matrix(0.691344,0,0,0.691344,5.22386,10.7504)">
            <g id="Movie-Component" serif:id="Movie Component">
                <path id="Reel1" serif:id="Reel" d="M0,38.33C-0.491,38.33 -0.889,37.932 -0.889,37.441L-0.889,32.199C-0.889,31.708 -0.491,31.31 0,31.31L3.802,31.31C4.293,31.31 4.691,31.708 4.691,32.199L4.691,37.441C4.691,37.932 4.293,38.33 3.802,38.33L0,38.33ZM50.52,38.33C50.029,38.33 49.631,37.932 49.631,37.441L49.631,32.199C49.631,31.708 50.029,31.31 50.52,31.31L54.322,31.31C54.813,31.31 55.211,31.708 55.211,32.199L55.211,37.441C55.211,37.932 54.813,38.33 54.322,38.33L50.52,38.33ZM0,27.66C-0.491,27.66 -0.889,27.262 -0.889,26.771L-0.889,21.529C-0.889,21.038 -0.491,20.64 0,20.64L3.802,20.64C4.293,20.64 4.691,21.038 4.691,21.529L4.691,26.771C4.691,27.262 4.293,27.66 3.802,27.66L0,27.66ZM50.52,27.66C50.029,27.66 49.631,27.262 49.631,26.771L49.631,21.529C49.631,21.038 50.029,20.64 50.52,20.64L54.322,20.64C54.813,20.64 55.211,21.038 55.211,21.529L55.211,26.771C55.211,27.262 54.813,27.66 54.322,27.66L50.52,27.66ZM0,17.05C-0.491,17.05 -0.889,16.652 -0.889,16.161L-0.889,10.929C-0.889,10.438 -0.491,10.04 0,10.04L3.802,10.04C4.293,10.04 4.691,10.438 4.691,10.929L4.691,16.161C4.691,16.652 4.293,17.05 3.802,17.05L0,17.05ZM50.52,17.05C50.029,17.05 49.631,16.652 49.631,16.161L49.631,10.929C49.631,10.438 50.029,10.04 50.52,10.04L54.322,10.04C54.813,10.04 55.211,10.438 55.211,10.929L55.211,16.161C55.211,16.652 54.813,17.05 54.322,17.05L50.52,17.05ZM0,6.45C-0.491,6.45 -0.889,6.052 -0.889,5.561L-0.889,0.319C-0.889,-0.172 -0.491,-0.57 0,-0.57L3.802,-0.57C4.293,-0.57 4.691,-0.172 4.691,0.319L4.691,5.561C4.691,6.052 4.293,6.45 3.802,6.45L0,6.45ZM50.52,6.45C50.029,6.45 49.631,6.052 49.631,5.561L49.631,0.319C49.631,-0.172 50.029,-0.57 50.52,-0.57L54.322,-0.57C54.813,-0.57 55.211,-0.172 55.211,0.319L55.211,5.561C55.211,6.052 54.813,6.45 54.322,6.45L50.52,6.45ZM10.617,42.61C8.504,42.61 6.791,40.897 6.791,38.785L6.791,-0.455C6.791,-2.567 8.504,-4.28 10.617,-4.28L43.896,-4.28C46.009,-4.28 47.721,-2.567 47.721,-0.455L47.721,38.785C47.721,40.897 46.009,42.61 43.896,42.61L10.617,42.61ZM50.112,-7.94L4.4,-7.94C-0.498,-7.94 -4.469,-3.969 -4.469,0.929L-4.469,38.29C-4.469,42.7 -0.889,46.27 3.511,46.27L50.112,46.27C55.011,46.27 58.981,42.299 58.981,37.401L58.981,0.929C58.981,-3.969 55.011,-7.94 50.112,-7.94" style="fill:var(--outline);fill-rule:nonzero;"/>
            </g>
        </g>
        <g transform="matrix(0.491071,0,0,0.491071,6.7106,22.2771)">
            <path d="M39.81,-4.231C39.81,-4.719 39.7,-5.207 39.48,-5.696C39.26,-6.184 38.943,-6.623 38.528,-7.014C38.113,-7.405 37.616,-7.722 37.039,-7.966C36.461,-8.21 35.822,-8.332 35.122,-8.332C34.52,-8.332 33.946,-8.231 33.401,-8.027C32.856,-7.824 32.375,-7.551 31.96,-7.209C31.545,-6.868 31.216,-6.473 30.972,-6.025C30.728,-5.578 30.605,-4.817 30.605,-3.743L23.013,-3.791C23.029,-5.37 23.33,-6.876 23.916,-8.308C24.502,-9.74 25.32,-11.002 26.37,-12.092C27.419,-13.183 28.685,-14.045 30.166,-14.68C31.647,-15.315 33.299,-15.632 35.122,-15.632C36.847,-15.632 38.459,-15.335 39.956,-14.741C41.453,-14.147 42.756,-13.345 43.862,-12.336C44.969,-11.327 45.836,-10.163 46.462,-8.845C47.089,-7.527 47.402,-6.143 47.402,-4.695C47.402,-3.116 47.077,-1.68 46.426,-0.386C45.775,0.908 44.888,1.954 43.765,2.752C44.351,3.077 44.896,3.508 45.4,4.046C45.905,4.583 46.348,5.201 46.731,5.901C47.113,6.601 47.415,7.366 47.634,8.196C47.854,9.026 47.964,9.897 47.964,10.808C47.964,12.403 47.638,13.917 46.987,15.349C46.336,16.782 45.437,18.039 44.29,19.121C43.142,20.204 41.787,21.062 40.225,21.697C38.662,22.332 36.978,22.649 35.171,22.649C33.462,22.649 31.871,22.381 30.398,21.843C28.925,21.306 27.635,20.562 26.528,19.61C25.422,18.657 24.53,17.534 23.855,16.24C23.18,14.946 22.781,13.868 22.659,13.006C22.537,12.143 22.467,11.248 22.451,10.32L30.117,10.32C30.215,12.029 30.707,13.286 31.594,14.092C32.481,14.898 33.706,15.3 35.269,15.3C35.968,15.3 36.624,15.182 37.234,14.946C37.844,14.71 38.377,14.393 38.833,13.994C39.289,13.596 39.651,13.128 39.919,12.59C40.188,12.053 40.322,11.476 40.322,10.857C40.322,10.206 40.204,9.6 39.968,9.038C39.732,8.477 39.395,7.997 38.955,7.598C38.516,7.199 37.979,6.886 37.344,6.658C36.709,6.43 36.001,6.316 35.22,6.316L31.802,6.316L31.802,-0.349L35.269,-0.349C35.985,-0.349 36.624,-0.447 37.185,-0.642C37.747,-0.837 38.223,-1.106 38.613,-1.448C39.004,-1.789 39.301,-2.196 39.504,-2.668C39.708,-3.14 39.81,-3.661 39.81,-4.231Z" style="fill:var(--red);fill-rule:nonzero;"/>
        </g>
    </g>
</svg>
